<svg width="516" height="314" viewBox="0 0 516 314" fill="none" xmlns="http://www.w3.org/2000/svg">
<g clip-path="url(#clip0_214_183)">
<path d="M99.4892 70.3636V242H63.2008V70.3636H99.4892ZM165.634 70.3636V242H129.345V70.3636H165.634ZM231.778 70.3636V242H195.49V70.3636H231.778Z" fill="white"/>
<path d="M392.202 207.403C402.202 193.028 407.827 176.153 407.827 157.403C407.827 140.528 402.827 124.903 394.702 111.778C394.702 111.153 394.077 111.153 394.077 110.528C378.452 86.1533 351.577 69.9033 320.327 69.9033C289.077 69.9033 261.577 86.1533 246.577 111.153C246.577 111.778 245.952 111.778 245.952 112.403C237.827 125.528 233.452 141.153 233.452 158.028C233.452 176.778 239.077 193.653 249.077 208.028L249.702 208.653C264.702 230.528 290.952 244.903 320.327 244.903C349.702 244.903 375.327 230.528 391.577 208.653C391.577 208.028 391.577 208.028 392.202 207.403ZM382.827 198.028L360.327 201.153L351.577 192.403L364.077 156.153L383.452 146.778L395.952 154.278C395.952 155.528 395.952 156.778 395.952 158.653C395.327 172.403 390.952 186.778 382.827 198.028ZM382.202 115.528L377.202 134.278L357.202 144.278L326.577 123.028V98.6533L347.827 88.0283C362.202 93.6533 374.077 103.028 382.202 115.528ZM292.202 88.0283L314.077 98.6533V123.028L283.452 144.903L262.827 134.903L257.827 115.528C266.577 103.028 278.452 93.6533 292.202 88.0283ZM245.327 153.028L257.827 145.528L277.202 155.528L289.702 191.778L280.952 200.528L257.827 198.028C249.702 186.153 245.327 172.403 245.327 157.403C245.327 156.153 245.327 154.278 245.327 153.028ZM300.952 229.903L290.327 208.653L297.827 201.153H342.827L350.327 208.653L339.702 229.903C333.452 231.778 327.202 232.403 320.327 232.403C313.452 232.403 307.202 231.153 300.952 229.903Z" fill="white"/>
<path fill-rule="evenodd" clip-rule="evenodd" d="M310.929 147.323H339.117C340.194 147.323 341.092 147.502 342.169 148.041C343.426 148.58 344.144 149.477 344.503 150.195C344.503 150.195 344.503 150.375 344.683 150.375C345.222 151.273 345.581 152.35 345.581 153.607C345.581 154.684 345.401 155.761 344.683 156.838L326.908 187.36C326.549 188.078 325.831 188.437 324.934 188.437C324.215 188.437 323.497 188.078 322.959 187.36L305.543 156.838C305.184 156.12 304.466 155.223 304.466 153.786C304.286 152.529 304.646 151.452 305.184 150.375C305.723 149.298 306.62 148.4 307.877 148.041C308.955 147.323 310.211 147.323 310.929 147.323ZM322.779 151.632H310.929C310.211 151.632 309.852 151.632 309.673 151.811C309.314 151.991 309.134 152.17 308.955 152.529C308.775 152.709 308.775 153.068 308.775 153.427C308.775 153.607 308.955 153.786 309.314 154.504L322.779 177.845V151.632ZM327.088 151.632V178.024L340.733 154.504C340.913 154.145 340.913 153.786 340.913 153.427C340.913 153.068 340.913 152.709 340.733 152.529C340.554 152.35 340.554 152.17 340.374 152.17L340.194 151.991C339.835 151.811 339.476 151.811 338.938 151.811H327.088V151.632Z" fill="black"/>
<path d="M490.354 118.273V145.091H412.833V118.273H490.354ZM430.432 87.4318H466.134V207.443C466.134 210.74 466.637 213.31 467.642 215.153C468.648 216.941 470.045 218.198 471.833 218.925C473.676 219.651 475.8 220.014 478.202 220.014C479.878 220.014 481.554 219.875 483.23 219.595C484.907 219.26 486.192 219.009 487.086 218.841L492.701 245.408C490.913 245.966 488.399 246.609 485.158 247.335C481.917 248.117 477.979 248.592 473.341 248.76C464.737 249.095 457.194 247.95 450.713 245.324C444.288 242.698 439.288 238.619 435.712 233.088C432.136 227.557 430.376 220.573 430.432 212.136V87.4318Z" fill="white"/>
</g>
<defs>
<clipPath id="clip0_214_183">
<rect width="516" height="314" fill="white"/>
</clipPath>
</defs>
</svg>
