<svg width="83" height="83" viewBox="0 0 83 83" fill="none" xmlns="http://www.w3.org/2000/svg">
<path fill-rule="evenodd" clip-rule="evenodd" d="M13.0203 0H69.3958C71.5503 0 73.3456 0.359078 75.5001 1.43632C78.0137 2.51356 79.45 4.30896 80.1682 5.74528C80.1682 5.74528 80.1682 6.10436 80.5272 6.10436C81.6045 7.89976 82.3226 10.0542 82.3226 12.5678C82.3226 14.7223 81.9636 16.8767 80.5272 19.0312L44.9784 80.0748C44.2602 81.5111 42.8239 82.2293 41.0285 82.2293C39.5922 82.2293 38.1558 81.5111 37.0786 80.0748L2.24789 19.0312C1.52973 17.5949 0.0934073 15.7995 0.0934073 12.9269C-0.265672 10.4133 0.452486 8.25884 1.52972 6.10436C2.60696 3.94988 4.40236 2.15448 6.91592 1.43632C9.0704 -1.43051e-06 11.584 0 13.0203 0ZM36.7195 8.61791H13.0203C11.584 8.61791 10.8658 8.61791 10.5067 8.97699C9.78855 9.33607 9.42948 9.69515 9.0704 10.4133C8.71132 10.7724 8.71132 11.4906 8.71132 12.2087C8.71132 12.5678 9.07039 12.9269 9.78855 14.3632L36.7195 61.0436V8.61791ZM45.3374 8.61791V61.4026L72.6275 14.3632C72.9866 13.645 72.9866 12.9269 72.9866 12.2087C72.9866 11.4906 72.9866 10.7724 72.6275 10.4133C72.2684 10.0542 72.2684 9.69516 71.9093 9.69516L71.5502 9.33607C70.8321 8.977 70.1139 8.97699 69.0367 8.97699H45.3374V8.61791Z" fill="#ffffff"/>
</svg>
