<svg width="481" height="296" viewBox="0 0 481 296" fill="none" xmlns="http://www.w3.org/2000/svg">
<g clip-path="url(#clip0_227_11)">
<path d="M64.4892 61.3636V233H28.2008V61.3636H64.4892ZM130.634 61.3636V233H94.3453V61.3636H130.634ZM196.778 61.3636V233H160.49V61.3636H196.778Z" fill="black"/>
<path d="M357.202 198.403C367.202 184.028 372.827 167.153 372.827 148.403C372.827 131.528 367.827 115.903 359.702 102.778C359.702 102.153 359.077 102.153 359.077 101.528C343.452 77.1533 316.577 60.9033 285.327 60.9033C254.077 60.9033 226.577 77.1533 211.577 102.153C211.577 102.778 210.952 102.778 210.952 103.403C202.827 116.528 198.452 132.153 198.452 149.028C198.452 167.778 204.077 184.653 214.077 199.028L214.702 199.653C229.702 221.528 255.952 235.903 285.327 235.903C314.702 235.903 340.327 221.528 356.577 199.653C356.577 199.028 356.577 199.028 357.202 198.403ZM347.827 189.028L325.327 192.153L316.577 183.403L329.077 147.153L348.452 137.778L360.952 145.278C360.952 146.528 360.952 147.778 360.952 149.653C360.327 163.403 355.952 177.778 347.827 189.028ZM347.202 106.528L342.202 125.278L322.202 135.278L291.577 114.028V89.6533L312.827 79.0283C327.202 84.6533 339.077 94.0283 347.202 106.528ZM257.202 79.0283L279.077 89.6533V114.028L248.452 135.903L227.827 125.903L222.827 106.528C231.577 94.0283 243.452 84.6533 257.202 79.0283ZM210.327 144.028L222.827 136.528L242.202 146.528L254.702 182.778L245.952 191.528L222.827 189.028C214.702 177.153 210.327 163.403 210.327 148.403C210.327 147.153 210.327 145.278 210.327 144.028ZM265.952 220.903L255.327 199.653L262.827 192.153H307.827L315.327 199.653L304.702 220.903C298.452 222.778 292.202 223.403 285.327 223.403C278.452 223.403 272.202 222.153 265.952 220.903Z" fill="black"/>
<path fill-rule="evenodd" clip-rule="evenodd" d="M275.929 138.323H304.117C305.194 138.323 306.092 138.502 307.169 139.041C308.426 139.58 309.144 140.477 309.503 141.195C309.503 141.195 309.503 141.375 309.683 141.375C310.222 142.273 310.581 143.35 310.581 144.607C310.581 145.684 310.401 146.761 309.683 147.838L291.908 178.36C291.549 179.078 290.831 179.437 289.934 179.437C289.215 179.437 288.497 179.078 287.959 178.36L270.543 147.838C270.184 147.12 269.466 146.223 269.466 144.786C269.286 143.529 269.646 142.452 270.184 141.375C270.723 140.298 271.62 139.4 272.877 139.041C273.955 138.323 275.211 138.323 275.929 138.323ZM287.779 142.632H275.929C275.211 142.632 274.852 142.632 274.673 142.811C274.314 142.991 274.134 143.17 273.955 143.529C273.775 143.709 273.775 144.068 273.775 144.427C273.775 144.607 273.955 144.786 274.314 145.504L287.779 168.845V142.632ZM292.088 142.632V169.024L305.733 145.504C305.913 145.145 305.913 144.786 305.913 144.427C305.913 144.068 305.913 143.709 305.733 143.529C305.554 143.35 305.554 143.17 305.374 143.17L305.194 142.991C304.835 142.811 304.476 142.811 303.938 142.811H292.088V142.632Z" fill="#E3E3E3"/>
<path d="M455.354 109.273V136.091H377.833V109.273H455.354ZM395.432 78.4318H431.134V198.443C431.134 201.74 431.637 204.31 432.642 206.153C433.648 207.941 435.045 209.198 436.833 209.925C438.676 210.651 440.8 211.014 443.202 211.014C444.878 211.014 446.554 210.875 448.23 210.595C449.907 210.26 451.192 210.009 452.086 209.841L457.701 236.408C455.913 236.966 453.399 237.609 450.158 238.335C446.917 239.117 442.979 239.592 438.341 239.76C429.737 240.095 422.194 238.95 415.713 236.324C409.288 233.698 404.288 229.619 400.712 224.088C397.136 218.557 395.376 211.573 395.432 203.136V78.4318Z" fill="black"/>
</g>
<defs>
<clipPath id="clip0_227_11">
<rect width="481" height="296" fill="white"/>
</clipPath>
</defs>
</svg>
