<svg width="516" height="314" viewBox="0 0 516 314" fill="none" xmlns="http://www.w3.org/2000/svg">
<g clip-path="url(#clip0_214_183)">
<path d="M85.4892 70.3636V242H49.2008V70.3636H85.4892ZM151.634 70.3636V242H115.345V70.3636H151.634ZM217.778 70.3636V242H181.49V70.3636H217.778Z" fill="#1B92D1"/>
<path d="M378.202 207.403C388.202 193.028 393.827 176.153 393.827 157.403C393.827 140.528 388.827 124.903 380.702 111.778C380.702 111.153 380.077 111.153 380.077 110.528C364.452 86.1533 337.577 69.9033 306.327 69.9033C275.077 69.9033 247.577 86.1533 232.577 111.153C232.577 111.778 231.952 111.778 231.952 112.403C223.827 125.528 219.452 141.153 219.452 158.028C219.452 176.778 225.077 193.653 235.077 208.028L235.702 208.653C250.702 230.528 276.952 244.903 306.327 244.903C335.702 244.903 361.327 230.528 377.577 208.653C377.577 208.028 377.577 208.028 378.202 207.403ZM368.827 198.028L346.327 201.153L337.577 192.403L350.077 156.153L369.452 146.778L381.952 154.278C381.952 155.528 381.952 156.778 381.952 158.653C381.327 172.403 376.952 186.778 368.827 198.028ZM368.202 115.528L363.202 134.278L343.202 144.278L312.577 123.028V98.6533L333.827 88.0283C348.202 93.6533 360.077 103.028 368.202 115.528ZM278.202 88.0283L300.077 98.6533V123.028L269.452 144.903L248.827 134.903L243.827 115.528C252.577 103.028 264.452 93.6533 278.202 88.0283ZM231.327 153.028L243.827 145.528L263.202 155.528L275.702 191.778L266.952 200.528L243.827 198.028C235.702 186.153 231.327 172.403 231.327 157.403C231.327 156.153 231.327 154.278 231.327 153.028ZM286.952 229.903L276.327 208.653L283.827 201.153H328.827L336.327 208.653L325.702 229.903C319.452 231.778 313.202 232.403 306.327 232.403C299.452 232.403 293.202 231.153 286.952 229.903Z" fill="#1B92D1"/>
<path fill-rule="evenodd" clip-rule="evenodd" d="M296.929 147.323H325.117C326.194 147.323 327.092 147.502 328.169 148.041C329.426 148.579 330.144 149.477 330.503 150.195C330.503 150.195 330.503 150.375 330.683 150.375C331.222 151.272 331.581 152.35 331.581 153.606C331.581 154.684 331.401 155.761 330.683 156.838L312.908 187.36C312.549 188.078 311.831 188.437 310.934 188.437C310.215 188.437 309.497 188.078 308.959 187.36L291.543 156.838C291.184 156.12 290.466 155.222 290.466 153.786C290.286 152.529 290.646 151.452 291.184 150.375C291.723 149.297 292.62 148.4 293.877 148.041C294.955 147.323 296.211 147.323 296.929 147.323ZM308.779 151.631H296.929C296.211 151.631 295.852 151.631 295.673 151.811C295.314 151.991 295.134 152.17 294.955 152.529C294.775 152.709 294.775 153.068 294.775 153.427C294.775 153.606 294.955 153.786 295.314 154.504L308.779 177.844V151.631ZM313.088 151.631V178.024L326.733 154.504C326.913 154.145 326.913 153.786 326.913 153.427C326.913 153.068 326.913 152.709 326.733 152.529C326.554 152.35 326.554 152.17 326.374 152.17L326.194 151.991C325.835 151.811 325.476 151.811 324.938 151.811H313.088V151.631Z" fill="white"/>
<path d="M476.354 118.273V145.091H398.833V118.273H476.354ZM416.432 87.4318H452.134V207.443C452.134 210.74 452.637 213.31 453.642 215.153C454.648 216.941 456.045 218.198 457.833 218.925C459.676 219.651 461.8 220.014 464.202 220.014C465.878 220.014 467.554 219.875 469.23 219.595C470.907 219.26 472.192 219.009 473.086 218.841L478.701 245.408C476.913 245.966 474.399 246.609 471.158 247.335C467.917 248.117 463.979 248.592 459.341 248.76C450.737 249.095 443.194 247.95 436.713 245.324C430.288 242.698 425.288 238.619 421.712 233.088C418.136 227.557 416.376 220.573 416.432 212.136V87.4318Z" fill="#1B92D1"/>
</g>
<defs>
<clipPath id="clip0_214_183">
<rect width="516" height="314" fill="white"/>
</clipPath>
</defs>
</svg>
