<svg width="25" height="25" viewBox="0 0 25 25" fill="none" xmlns="http://www.w3.org/2000/svg">
<path d="M22.1808 3.03552C19.1048 4.30952 5.91525 9.77277 2.271 11.2618C-0.173001 12.2155 1.25775 13.1098 1.25775 13.1098C1.25775 13.1098 3.344 13.825 5.1325 14.3615C6.92075 14.898 7.8745 14.302 7.8745 14.302L16.2795 8.63902C19.26 6.61227 18.5448 8.28127 17.8293 8.99677C16.2795 10.5468 13.7163 12.9905 11.5703 14.9578C10.6165 15.7923 11.0933 16.5075 11.5108 16.8653C13.0605 18.1768 17.293 20.8593 17.5313 21.038C18.7905 21.9295 21.2675 23.2128 21.6443 20.5015L23.1345 11.1428C23.6115 7.98352 24.0883 5.06252 24.1478 4.22802C24.3268 2.20102 22.1808 3.03552 22.1808 3.03552Z" fill="#ffffff"/>
</svg>
