<svg width="24" height="23" viewBox="0 0 24 23" fill="none" xmlns="http://www.w3.org/2000/svg">
<path d="M6.53379 15.014L5.67934 19.9738C5.67934 20.4869 5.67934 21 6.53379 21C6.83874 21 10.6351 18.7766 10.9769 18.6056C11.7972 18.1951 12.6858 18.4346 13.0276 18.6056C13.3694 18.7766 17.1657 21 17.4707 21C18.3251 21 18.3251 20.4869 18.3251 19.9738L17.4707 15.014C17.4707 14.8429 17.2998 14.3299 17.8125 13.8168L21.572 10.0541C21.9708 9.59804 22.4265 8.85692 21.2302 8.68589L15.7572 7.83074C15.0737 7.65971 14.7319 6.97559 14.561 6.63354L12.6812 2.52883C12.1344 1.57107 11.542 2.12976 11.3141 2.52883L9.26354 6.63354C9.09256 6.97559 8.92167 7.65971 8.23812 7.83074L2.76975 8.68589C1.57353 8.85692 2.02923 9.59804 2.42798 10.0541L6.18754 13.8168C6.7002 14.3299 6.53379 14.8429 6.53379 15.014Z" stroke="white" stroke-width="2.5"/>
</svg>
