<svg width="19" height="20" viewBox="0 0 19 20" fill="none" xmlns="http://www.w3.org/2000/svg">
<path d="M16.9907 1.63473L17.0038 1.6413L17.0173 1.64709C17.423 1.82097 17.6604 2.09911 17.7859 2.32641C17.7944 2.35378 17.806 2.38402 17.8218 2.41558C17.8517 2.4755 17.9005 2.54678 17.9771 2.6077C18.1386 2.91421 18.2411 3.26961 18.2411 3.67859C18.2411 4.09892 18.1725 4.47376 17.9233 4.84767L17.9148 4.86029L17.9072 4.8734L9.95186 18.5341L9.94384 18.5479L9.93672 18.5621C9.88183 18.6719 9.76479 18.7679 9.5 18.7679C9.36026 18.7679 9.18772 18.7024 9.03329 18.508L1.26226 4.8887C1.21415 4.79339 1.16564 4.70753 1.11951 4.62586C0.966332 4.35471 0.839293 4.12983 0.839293 3.75895V3.72341L0.834268 3.68824C0.774781 3.27183 0.886259 2.89912 1.10794 2.45577C1.29998 2.07168 1.60249 1.78284 2.00344 1.66828L2.07849 1.64684L2.14343 1.60354C2.48483 1.37594 2.90086 1.36609 3.23215 1.36609H15.8482C16.2586 1.36609 16.583 1.43088 16.9907 1.63473ZM9.03572 2.79466V2.29466H8.53572H3.23215C3.22497 2.29466 3.21778 2.29466 3.21058 2.29466C3.06886 2.29462 2.92386 2.29459 2.80528 2.30776C2.70251 2.31918 2.53958 2.34703 2.39224 2.45589C2.30001 2.50625 2.20915 2.56814 2.12525 2.65205C2.04142 2.73588 1.97956 2.82665 1.92923 2.9188C1.82681 3.05696 1.79567 3.20735 1.78293 3.29649C1.76773 3.40293 1.76781 3.51465 1.76786 3.58659C1.76786 3.5906 1.76786 3.59448 1.76786 3.59823C1.76786 3.70679 1.79629 3.79497 1.82211 3.8563C1.84533 3.91143 1.87467 3.96313 1.89401 3.99697C1.90105 4.0093 1.90832 4.0219 1.91587 4.03498C1.95471 4.10229 2.00091 4.18236 2.06172 4.30398L2.06839 4.31732L2.07584 4.33024L8.10262 14.7767L9.03572 16.394V14.5268V2.79466ZM9.96429 14.6072V16.4654L10.8968 14.8581L17.0039 4.33128L17.0117 4.31786L17.0186 4.30399C17.1527 4.03584 17.1521 3.77148 17.1518 3.61917C17.1518 3.61194 17.1518 3.60495 17.1518 3.59823L17.1518 3.58659C17.1518 3.51465 17.1519 3.40292 17.1367 3.29649C17.122 3.19372 17.0829 3.00956 16.9383 2.85657C16.9348 2.85067 16.9258 2.83668 16.9071 2.8086C16.8872 2.77883 16.8355 2.70319 16.7452 2.63993C16.7256 2.62626 16.7057 2.61407 16.6854 2.60327L16.6839 2.60183L16.6265 2.54445L16.554 2.50816C16.2852 2.37377 16.0154 2.37444 15.8055 2.37496C15.7927 2.37499 15.7802 2.37502 15.7679 2.37502H10.4643V2.79466H9.96429V2.87502V3.37502V14.6072Z" stroke="#999999"/>
</svg>
